<?xml version="1.0" encoding="UTF-8" standalone="no"?>
<!DOCTYPE svg PUBLIC "-//W3C//DTD SVG 1.1//EN"
 "http://www.w3.org/Graphics/SVG/1.1/DTD/svg11.dtd">
<!-- Generated by graphviz version 2.40.1 (20161225.0304)
 -->
<!-- Title: dependencies Pages: 1 -->
<svg width="2074pt" height="284pt"
 viewBox="0.00 0.00 2074.00 284.00" xmlns="http://www.w3.org/2000/svg" xmlns:xlink="http://www.w3.org/1999/xlink">
<g id="graph0" class="graph" transform="scale(1 1) rotate(0) translate(4 280)">
<title>dependencies</title>
<polygon fill="#ffffff" stroke="transparent" points="-4,4 -4,-280 2070,-280 2070,4 -4,4"/>
<text text-anchor="start" x="1012.0091" y="-42.4" font-family="sans-serif" font-weight="bold" font-size="14.00" fill="#000000">Legend</text>
<polygon fill="#ffffb3" stroke="transparent" points="799,-10 799,-30 819,-30 819,-10 799,-10"/>
<text text-anchor="start" x="822.629" y="-15.4" font-family="sans-serif" font-size="14.00" fill="#000000"> &#160;Declarations</text>
<polygon fill="#8dd3c7" stroke="transparent" points="912,-10 912,-30 932,-30 932,-10 912,-10"/>
<text text-anchor="start" x="935.7251" y="-15.4" font-family="sans-serif" font-size="14.00" fill="#000000"> &#160;Module</text>
<polygon fill="#80b1d3" stroke="transparent" points="998,-10 998,-30 1018,-30 1018,-10 998,-10"/>
<text text-anchor="start" x="1021.7812" y="-15.4" font-family="sans-serif" font-size="14.00" fill="#000000"> &#160;Bootstrap</text>
<polygon fill="#fdb462" stroke="transparent" points="1095,-10 1095,-30 1115,-30 1115,-10 1095,-10"/>
<text text-anchor="start" x="1118.6732" y="-15.4" font-family="sans-serif" font-size="14.00" fill="#000000"> &#160;Providers</text>
<polygon fill="#fb8072" stroke="transparent" points="1191,-10 1191,-30 1211,-30 1211,-10 1191,-10"/>
<text text-anchor="start" x="1214.7258" y="-15.4" font-family="sans-serif" font-size="14.00" fill="#000000"> &#160;Exports</text>
<g id="clust1" class="cluster">
<title>cluster_AppModule</title>
<polygon fill="none" stroke="#000000" stroke-dasharray="1,5" points="8,-70 8,-268 2058,-268 2058,-70 8,-70"/>
</g>
<g id="clust2" class="cluster">
<title>cluster_AppModule_declarations</title>
<polygon fill="none" stroke="#000000" points="212,-78 212,-130 2050,-130 2050,-78 212,-78"/>
</g>
<g id="clust16" class="cluster">
<title>cluster_AppModule_bootstrap</title>
<polygon fill="none" stroke="#000000" points="959,-208 959,-260 1083,-260 1083,-208 959,-208"/>
</g>
<g id="clust17" class="cluster">
<title>cluster_AppModule_providers</title>
<polygon fill="none" stroke="#000000" points="16,-78 16,-130 204,-130 204,-78 16,-78"/>
</g>
<!-- AppComponent -->
<g id="node1" class="node">
<title>AppComponent</title>
<polygon fill="#ffffb3" stroke="#000000" points="2041.9399,-122 1936.0601,-122 1936.0601,-86 2041.9399,-86 2041.9399,-122"/>
<text text-anchor="middle" x="1989" y="-99.8" font-family="Times,serif" font-size="14.00" fill="#000000">AppComponent</text>
</g>
<!-- AppModule -->
<g id="node12" class="node">
<title>AppModule</title>
<polygon fill="#8dd3c7" stroke="#000000" points="1062.6571,-187 1059.6571,-191 1038.6571,-191 1035.6571,-187 979.3429,-187 979.3429,-151 1062.6571,-151 1062.6571,-187"/>
<text text-anchor="middle" x="1021" y="-164.8" font-family="Times,serif" font-size="14.00" fill="#000000">AppModule</text>
</g>
<!-- AppComponent&#45;&gt;AppModule -->
<g id="edge1" class="edge">
<title>AppComponent&#45;&gt;AppModule</title>
<path fill="none" stroke="#000000" d="M1989,-122.2479C1989,-145.0179 1989,-181 1989,-181 1989,-181 1072.9044,-181 1072.9044,-181"/>
<polygon fill="#000000" stroke="#000000" points="1072.9045,-177.5001 1062.9044,-181 1072.9044,-184.5001 1072.9045,-177.5001"/>
</g>
<!-- CabecalhoComponent -->
<g id="node2" class="node">
<title>CabecalhoComponent</title>
<polygon fill="#ffffb3" stroke="#000000" points="1918.4186,-122 1777.5814,-122 1777.5814,-86 1918.4186,-86 1918.4186,-122"/>
<text text-anchor="middle" x="1848" y="-99.8" font-family="Times,serif" font-size="14.00" fill="#000000">CabecalhoComponent</text>
</g>
<!-- CabecalhoComponent&#45;&gt;AppModule -->
<g id="edge2" class="edge">
<title>CabecalhoComponent&#45;&gt;AppModule</title>
<path fill="none" stroke="#000000" d="M1848,-122.2843C1848,-143.3211 1848,-175 1848,-175 1848,-175 1072.8625,-175 1072.8625,-175"/>
<polygon fill="#000000" stroke="#000000" points="1072.8625,-171.5001 1062.8625,-175 1072.8624,-178.5001 1072.8625,-171.5001"/>
</g>
<!-- CadastrarPartidaComponent -->
<g id="node3" class="node">
<title>CadastrarPartidaComponent</title>
<polygon fill="#ffffb3" stroke="#000000" points="1759.1232,-122 1584.8768,-122 1584.8768,-86 1759.1232,-86 1759.1232,-122"/>
<text text-anchor="middle" x="1672" y="-99.8" font-family="Times,serif" font-size="14.00" fill="#000000">CadastrarPartidaComponent</text>
</g>
<!-- CadastrarPartidaComponent&#45;&gt;AppModule -->
<g id="edge3" class="edge">
<title>CadastrarPartidaComponent&#45;&gt;AppModule</title>
<path fill="none" stroke="#000000" d="M1672,-122.1061C1672,-141.3391 1672,-169 1672,-169 1672,-169 1072.7133,-169 1072.7133,-169"/>
<polygon fill="#000000" stroke="#000000" points="1072.7133,-165.5001 1062.7133,-169 1072.7133,-172.5001 1072.7133,-165.5001"/>
</g>
<!-- DetalhesPartidaComponent -->
<g id="node4" class="node">
<title>DetalhesPartidaComponent</title>
<polygon fill="#ffffb3" stroke="#000000" points="1566.9622,-122 1397.0378,-122 1397.0378,-86 1566.9622,-86 1566.9622,-122"/>
<text text-anchor="middle" x="1482" y="-99.8" font-family="Times,serif" font-size="14.00" fill="#000000">DetalhesPartidaComponent</text>
</g>
<!-- DetalhesPartidaComponent&#45;&gt;AppModule -->
<g id="edge4" class="edge">
<title>DetalhesPartidaComponent&#45;&gt;AppModule</title>
<path fill="none" stroke="#000000" d="M1482,-122.0225C1482,-139.3734 1482,-163 1482,-163 1482,-163 1072.7237,-163 1072.7237,-163"/>
<polygon fill="#000000" stroke="#000000" points="1072.7238,-159.5001 1062.7237,-163 1072.7237,-166.5001 1072.7238,-159.5001"/>
</g>
<!-- EstatisticasDePalpitesComponent -->
<g id="node5" class="node">
<title>EstatisticasDePalpitesComponent</title>
<polygon fill="#ffffb3" stroke="#000000" points="1379.465,-122 1174.535,-122 1174.535,-86 1379.465,-86 1379.465,-122"/>
<text text-anchor="middle" x="1277" y="-99.8" font-family="Times,serif" font-size="14.00" fill="#000000">EstatisticasDePalpitesComponent</text>
</g>
<!-- EstatisticasDePalpitesComponent&#45;&gt;AppModule -->
<g id="edge5" class="edge">
<title>EstatisticasDePalpitesComponent&#45;&gt;AppModule</title>
<path fill="none" stroke="#000000" d="M1277,-122.2396C1277,-137.5706 1277,-157 1277,-157 1277,-157 1072.7006,-157 1072.7006,-157"/>
<polygon fill="#000000" stroke="#000000" points="1072.7006,-153.5001 1062.7006,-157 1072.7005,-160.5001 1072.7006,-153.5001"/>
</g>
<!-- HomeComponent -->
<g id="node6" class="node">
<title>HomeComponent</title>
<polygon fill="#ffffb3" stroke="#000000" points="1156.5451,-122 1041.4549,-122 1041.4549,-86 1156.5451,-86 1156.5451,-122"/>
<text text-anchor="middle" x="1099" y="-99.8" font-family="Times,serif" font-size="14.00" fill="#000000">HomeComponent</text>
</g>
<!-- HomeComponent&#45;&gt;AppModule -->
<g id="edge6" class="edge">
<title>HomeComponent&#45;&gt;AppModule</title>
<path fill="none" stroke="#000000" d="M1052.028,-122.1061C1052.028,-122.1061 1052.028,-140.991 1052.028,-140.991"/>
<polygon fill="#000000" stroke="#000000" points="1048.5281,-140.9909 1052.028,-150.991 1055.5281,-140.991 1048.5281,-140.9909"/>
</g>
<!-- ListarPartidasComponent -->
<g id="node7" class="node">
<title>ListarPartidasComponent</title>
<polygon fill="#ffffb3" stroke="#000000" points="1023.5842,-122 864.4158,-122 864.4158,-86 1023.5842,-86 1023.5842,-122"/>
<text text-anchor="middle" x="944" y="-99.8" font-family="Times,serif" font-size="14.00" fill="#000000">ListarPartidasComponent</text>
</g>
<!-- ListarPartidasComponent&#45;&gt;AppModule -->
<g id="edge7" class="edge">
<title>ListarPartidasComponent&#45;&gt;AppModule</title>
<path fill="none" stroke="#000000" d="M1001.357,-122.1061C1001.357,-122.1061 1001.357,-140.991 1001.357,-140.991"/>
<polygon fill="#000000" stroke="#000000" points="997.857,-140.9909 1001.357,-150.991 1004.857,-140.991 997.857,-140.9909"/>
</g>
<!-- PalpiteDeGolsComponent -->
<g id="node8" class="node">
<title>PalpiteDeGolsComponent</title>
<polygon fill="#ffffb3" stroke="#000000" points="846.479,-122 683.521,-122 683.521,-86 846.479,-86 846.479,-122"/>
<text text-anchor="middle" x="765" y="-99.8" font-family="Times,serif" font-size="14.00" fill="#000000">PalpiteDeGolsComponent</text>
</g>
<!-- PalpiteDeGolsComponent&#45;&gt;AppModule -->
<g id="edge8" class="edge">
<title>PalpiteDeGolsComponent&#45;&gt;AppModule</title>
<path fill="none" stroke="#000000" d="M765,-122.2396C765,-137.5706 765,-157 765,-157 765,-157 969.2994,-157 969.2994,-157"/>
<polygon fill="#000000" stroke="#000000" points="969.2995,-160.5001 979.2994,-157 969.2994,-153.5001 969.2995,-160.5001"/>
</g>
<!-- PalpiteDePlacarComponent -->
<g id="node9" class="node">
<title>PalpiteDePlacarComponent</title>
<polygon fill="#ffffb3" stroke="#000000" points="665.5155,-122 494.4845,-122 494.4845,-86 665.5155,-86 665.5155,-122"/>
<text text-anchor="middle" x="580" y="-99.8" font-family="Times,serif" font-size="14.00" fill="#000000">PalpiteDePlacarComponent</text>
</g>
<!-- PalpiteDePlacarComponent&#45;&gt;AppModule -->
<g id="edge9" class="edge">
<title>PalpiteDePlacarComponent&#45;&gt;AppModule</title>
<path fill="none" stroke="#000000" d="M580,-122.0225C580,-139.3734 580,-163 580,-163 580,-163 969.1142,-163 969.1142,-163"/>
<polygon fill="#000000" stroke="#000000" points="969.1142,-166.5001 979.1142,-163 969.1142,-159.5001 969.1142,-166.5001"/>
</g>
<!-- RodapeComponent -->
<g id="node10" class="node">
<title>RodapeComponent</title>
<polygon fill="#ffffb3" stroke="#000000" points="476.0982,-122 351.9018,-122 351.9018,-86 476.0982,-86 476.0982,-122"/>
<text text-anchor="middle" x="414" y="-99.8" font-family="Times,serif" font-size="14.00" fill="#000000">RodapeComponent</text>
</g>
<!-- RodapeComponent&#45;&gt;AppModule -->
<g id="edge10" class="edge">
<title>RodapeComponent&#45;&gt;AppModule</title>
<path fill="none" stroke="#000000" d="M414,-122.1061C414,-141.3391 414,-169 414,-169 414,-169 969.2784,-169 969.2784,-169"/>
<polygon fill="#000000" stroke="#000000" points="969.2785,-172.5001 979.2784,-169 969.2784,-165.5001 969.2785,-172.5001"/>
</g>
<!-- SobreComponent -->
<g id="node11" class="node">
<title>SobreComponent</title>
<polygon fill="#ffffb3" stroke="#000000" points="333.9902,-122 220.0098,-122 220.0098,-86 333.9902,-86 333.9902,-122"/>
<text text-anchor="middle" x="277" y="-99.8" font-family="Times,serif" font-size="14.00" fill="#000000">SobreComponent</text>
</g>
<!-- SobreComponent&#45;&gt;AppModule -->
<g id="edge11" class="edge">
<title>SobreComponent&#45;&gt;AppModule</title>
<path fill="none" stroke="#000000" d="M277,-122.2843C277,-143.3211 277,-175 277,-175 277,-175 969.1367,-175 969.1367,-175"/>
<polygon fill="#000000" stroke="#000000" points="969.1368,-178.5001 979.1367,-175 969.1367,-171.5001 969.1368,-178.5001"/>
</g>
<!-- AppComponent  -->
<g id="node13" class="node">
<title>AppComponent </title>
<polygon fill="#80b1d3" stroke="#000000" points="1075.439,-252 966.561,-252 966.561,-216 1075.439,-216 1075.439,-252"/>
<text text-anchor="middle" x="1021" y="-229.8" font-family="Times,serif" font-size="14.00" fill="#000000">AppComponent </text>
</g>
<!-- AppModule&#45;&gt;AppComponent  -->
<g id="edge12" class="edge">
<title>AppModule&#45;&gt;AppComponent </title>
<path fill="none" stroke="#000000" stroke-dasharray="1,5" d="M1021,-187.1061C1021,-187.1061 1021,-205.991 1021,-205.991"/>
<polygon fill="#000000" stroke="#000000" points="1017.5001,-205.9909 1021,-215.991 1024.5001,-205.991 1017.5001,-205.9909"/>
</g>
<!-- LancesWebService -->
<g id="node14" class="node">
<title>LancesWebService</title>
<ellipse fill="#fdb462" stroke="#000000" cx="110" cy="-104" rx="85.6319" ry="18"/>
<text text-anchor="middle" x="110" y="-99.8" font-family="Times,serif" font-size="14.00" fill="#000000">LancesWebService</text>
</g>
<!-- LancesWebService&#45;&gt;AppModule -->
<g id="edge13" class="edge">
<title>LancesWebService&#45;&gt;AppModule</title>
<path fill="none" stroke="#000000" d="M110,-122.2479C110,-145.0179 110,-181 110,-181 110,-181 969.1888,-181 969.1888,-181"/>
<polygon fill="#000000" stroke="#000000" points="969.1888,-184.5001 979.1888,-181 969.1888,-177.5001 969.1888,-184.5001"/>
</g>
</g>
</svg>
